# Blender v2.80 (sub 75) OBJ File: ''
# www.blender.org
mtllib piso.mtl
o Grid
v 1.222912 -0.061556 2.187967
v 1.502550 -0.061556 1.739227
v 1.638778 -0.061556 1.216249
v 1.666871 -0.061556 0.860746
v 1.567329 -0.061556 0.314418
v 1.499755 -0.061556 -0.201544
v 1.603432 -0.061556 -0.566779
v 1.665162 -0.061556 -1.087017
v 1.532941 -0.061556 -1.666972
v 1.254193 -0.061556 -2.182038
v 0.890852 -0.061556 2.187660
v 0.891276 -0.009238 1.729260
v 0.891699 -0.061556 1.270861
v 0.892123 -0.061556 0.812462
v 0.892547 -0.061556 0.354063
v 0.892971 -0.061556 -0.104336
v 0.893395 -0.061556 -0.562735
v 0.893819 -0.061556 -1.021134
v 0.894242 -0.061556 -1.479533
v 0.915401 -0.061556 -2.266964
v 0.558792 -0.061556 2.187353
v 0.559216 -0.061556 1.728953
v 0.559640 -0.061556 1.270554
v 0.560064 -0.061556 0.812155
v 0.560487 -0.061556 0.353756
v 0.560911 -0.061556 -0.104643
v 0.561335 -0.061556 -0.563042
v 0.561759 -0.040372 -1.021441
v 0.562183 -0.061556 -1.479840
v 0.627535 -0.061556 -2.187318
v 0.226732 -0.061556 2.187046
v 0.227156 -0.061556 1.728646
v 0.227580 -0.061556 1.270247
v 0.228004 0.005465 0.811848
v 0.228427 -0.061556 0.353449
v 0.228851 -0.061556 -0.104950
v 0.229275 -0.006876 -0.563349
v 0.229699 -0.061556 -1.021748
v 0.230123 -0.018849 -1.480147
v 0.275113 -0.061556 -2.262855
v -0.105328 -0.061556 2.186738
v -0.104904 -0.061556 1.728339
v -0.104480 -0.061556 1.269940
v -0.104056 -0.061556 0.811541
v -0.103632 -0.061556 0.353142
v -0.103209 -0.061556 -0.105257
v -0.102785 -0.061556 -0.563656
v -0.102361 -0.061556 -1.022055
v -0.101937 -0.061556 -1.480454
v -0.094390 -0.061556 -2.277299
v -0.437387 -0.061556 2.186432
v -0.436964 -0.061556 1.728032
v -0.436540 -0.061556 1.269633
v -0.436116 -0.061556 0.811234
v -0.435692 -0.061556 0.352835
v -0.435268 -0.061556 -0.105564
v -0.434845 -0.061556 -0.563963
v -0.434421 -0.061556 -1.022362
v -0.433997 -0.061556 -1.480761
v -0.394415 -0.051027 -2.214938
v -0.769447 -0.061556 2.186125
v -0.769023 -0.061556 1.727725
v -0.768600 -0.061556 1.269326
v -0.768176 -0.061556 0.810927
v -0.767752 -0.061556 0.352528
v -0.767328 -0.061556 -0.105871
v -0.766904 0.003225 -0.564270
v -0.766481 -0.061556 -1.022669
v -0.766057 -0.061556 -1.481068
v -0.647208 -0.047234 -2.272934
v -1.101507 -0.061556 2.185817
v -1.101083 -0.061556 1.727418
v -1.100659 0.003575 1.269019
v -1.100236 -0.061556 0.810620
v -1.099812 -0.061556 0.352221
v -1.099388 -0.061556 -0.106178
v -1.098964 -0.061556 -0.564577
v -1.098540 -0.061556 -1.022976
v -1.098117 -0.061556 -1.481375
v -1.016673 -0.021294 -2.221434
v -1.433567 -0.061556 2.185511
v -1.433143 -0.061556 1.727111
v -1.432719 -0.061556 1.268712
v -1.432295 -0.061556 0.810313
v -1.431872 -0.061556 0.351914
v -1.431448 -0.061556 -0.106485
v -1.431024 -0.061556 -0.564884
v -1.430600 -0.061556 -1.023283
v -1.430176 -0.061556 -1.481682
v -1.461684 -0.069243 -2.309632
v -1.765627 -0.061556 2.185204
v -1.925380 -0.061556 1.872379
v -2.016974 -0.061556 1.498508
v -1.934752 -0.061556 0.960272
v -2.089382 -0.061556 0.513169
v -2.097021 -0.061556 -0.041290
v -1.916386 -0.061556 -0.490121
v -1.936800 -0.073830 -1.035410
v -2.042392 -0.079987 -1.513068
v -1.908126 -0.061556 -2.058042
vt 0.000000 0.000000
vt 0.111111 0.000000
vt 0.111111 0.111111
vt 0.000000 0.111111
vt 0.222222 0.000000
vt 0.222222 0.111111
vt 0.333333 0.000000
vt 0.333333 0.111111
vt 0.444444 0.000000
vt 0.444444 0.111111
vt 0.555556 0.000000
vt 0.555556 0.111111
vt 0.666667 0.000000
vt 0.666667 0.111111
vt 0.777778 0.000000
vt 0.777778 0.111111
vt 0.888889 0.000000
vt 0.888889 0.111111
vt 1.000000 0.000000
vt 1.000000 0.111111
vt 0.111111 0.222222
vt 0.000000 0.222222
vt 0.222222 0.222222
vt 0.333333 0.222222
vt 0.444444 0.222222
vt 0.555556 0.222222
vt 0.666667 0.222222
vt 0.777778 0.222222
vt 0.888889 0.222222
vt 1.000000 0.222222
vt 0.111111 0.333333
vt 0.000000 0.333333
vt 0.222222 0.333333
vt 0.333333 0.333333
vt 0.444444 0.333333
vt 0.555556 0.333333
vt 0.666667 0.333333
vt 0.777778 0.333333
vt 0.888889 0.333333
vt 1.000000 0.333333
vt 0.111111 0.444444
vt 0.000000 0.444444
vt 0.222222 0.444444
vt 0.333333 0.444444
vt 0.444444 0.444444
vt 0.555556 0.444444
vt 0.666667 0.444444
vt 0.777778 0.444444
vt 0.888889 0.444444
vt 1.000000 0.444444
vt 0.111111 0.555556
vt 0.000000 0.555556
vt 0.222222 0.555556
vt 0.333333 0.555556
vt 0.444444 0.555556
vt 0.555556 0.555556
vt 0.666667 0.555556
vt 0.777778 0.555556
vt 0.888889 0.555556
vt 1.000000 0.555556
vt 0.111111 0.666667
vt 0.000000 0.666667
vt 0.222222 0.666667
vt 0.333333 0.666667
vt 0.444444 0.666667
vt 0.555556 0.666667
vt 0.666667 0.666667
vt 0.777778 0.666667
vt 0.888889 0.666667
vt 1.000000 0.666667
vt 0.111111 0.777778
vt 0.000000 0.777778
vt 0.222222 0.777778
vt 0.333333 0.777778
vt 0.444444 0.777778
vt 0.555556 0.777778
vt 0.666667 0.777778
vt 0.777778 0.777778
vt 0.888889 0.777778
vt 1.000000 0.777778
vt 0.111111 0.888889
vt 0.000000 0.888889
vt 0.222222 0.888889
vt 0.333333 0.888889
vt 0.444444 0.888889
vt 0.555556 0.888889
vt 0.666667 0.888889
vt 0.777778 0.888889
vt 0.888889 0.888889
vt 1.000000 0.888889
vt 0.111111 1.000000
vt 0.000000 1.000000
vt 0.222222 1.000000
vt 0.333333 1.000000
vt 0.444444 1.000000
vt 0.555556 1.000000
vt 0.666667 1.000000
vt 0.777778 1.000000
vt 0.888889 1.000000
vt 1.000000 1.000000
vn 0.0544 0.9958 0.0742
vn 0.0369 0.9982 -0.0481
vn 0.0000 1.0000 -0.0000
vn -0.0785 0.9953 0.0567
vn -0.0784 0.9953 -0.0569
vn 0.0319 0.9992 0.0231
vn 0.0319 0.9992 -0.0231
vn 0.1001 0.9923 0.0726
vn 0.1002 0.9923 -0.0724
vn 0.0819 0.9949 0.0594
vn 0.0504 0.9981 -0.0364
vn 0.0324 0.9992 0.0235
vn 0.0649 0.9976 -0.0238
vn -0.1002 0.9923 0.0724
vn -0.1001 0.9923 -0.0726
vn -0.0820 0.9949 0.0593
vn -0.0819 0.9949 -0.0594
vn -0.0641 0.9969 0.0464
vn -0.0601 0.9978 -0.0290
vn 0.0174 0.9998 0.0074
vn 0.0968 0.9928 0.0702
vn 0.0969 0.9928 -0.0701
vn 0.0048 0.9998 0.0168
vn 0.0973 0.9927 0.0706
vn 0.0974 0.9927 -0.0704
vn -0.0969 0.9928 0.0701
vn -0.0968 0.9928 -0.0702
vn 0.0399 0.9984 0.0408
vn -0.0974 0.9927 0.0704
vn -0.0973 0.9927 -0.0706
vn -0.0637 0.9978 0.0187
vn -0.0131 0.9998 -0.0120
vn -0.0273 0.9996 -0.0035
vn -0.0087 0.9999 0.0072
usemtl None
s off
f 1/1/1 2/2/1 12/3/1 11/4/1
f 2/2/2 3/5/2 13/6/2 12/3/2
f 3/5/3 4/7/3 14/8/3 13/6/3
f 4/7/3 5/9/3 15/10/3 14/8/3
f 5/9/3 6/11/3 16/12/3 15/10/3
f 6/11/3 7/13/3 17/14/3 16/12/3
f 7/13/3 8/15/3 18/16/3 17/14/3
f 8/15/3 9/17/3 19/18/3 18/16/3
f 9/17/3 10/19/3 20/20/3 19/18/3
f 11/4/4 12/3/4 22/21/4 21/22/4
f 12/3/5 13/6/5 23/23/5 22/21/5
f 13/6/3 14/8/3 24/24/3 23/23/3
f 14/8/3 15/10/3 25/25/3 24/24/3
f 15/10/3 16/12/3 26/26/3 25/25/3
f 16/12/3 17/14/3 27/27/3 26/26/3
f 17/14/6 18/16/6 28/28/6 27/27/6
f 18/16/7 19/18/7 29/29/7 28/28/7
f 19/18/3 20/20/3 30/30/3 29/29/3
f 21/22/3 22/21/3 32/31/3 31/32/3
f 22/21/3 23/23/3 33/33/3 32/31/3
f 23/23/8 24/24/8 34/34/8 33/33/8
f 24/24/9 25/25/9 35/35/9 34/34/9
f 25/25/3 26/26/3 36/36/3 35/35/3
f 26/26/10 27/27/10 37/37/10 36/36/10
f 27/27/11 28/28/11 38/38/11 37/37/11
f 28/28/12 29/29/12 39/39/12 38/38/12
f 29/29/13 30/30/13 40/40/13 39/39/13
f 31/32/3 32/31/3 42/41/3 41/42/3
f 32/31/3 33/33/3 43/43/3 42/41/3
f 33/33/14 34/34/14 44/44/14 43/43/14
f 34/34/15 35/35/15 45/45/15 44/44/15
f 35/35/3 36/36/3 46/46/3 45/45/3
f 36/36/16 37/37/16 47/47/16 46/46/16
f 37/37/17 38/38/17 48/48/17 47/47/17
f 38/38/18 39/39/18 49/49/18 48/48/18
f 39/39/19 40/40/19 50/50/19 49/49/19
f 41/42/3 42/41/3 52/51/3 51/52/3
f 42/41/3 43/43/3 53/53/3 52/51/3
f 43/43/3 44/44/3 54/54/3 53/53/3
f 44/44/3 45/45/3 55/55/3 54/54/3
f 45/45/3 46/46/3 56/56/3 55/55/3
f 46/46/3 47/47/3 57/57/3 56/56/3
f 47/47/3 48/48/3 58/58/3 57/57/3
f 48/48/3 49/49/3 59/59/3 58/58/3
f 49/49/20 50/50/20 60/60/20 59/59/20
f 51/52/3 52/51/3 62/61/3 61/62/3
f 52/51/3 53/53/3 63/63/3 62/61/3
f 53/53/3 54/54/3 64/64/3 63/63/3
f 54/54/3 55/55/3 65/65/3 64/64/3
f 55/55/3 56/56/3 66/66/3 65/65/3
f 56/56/21 57/57/21 67/67/21 66/66/21
f 57/57/22 58/58/22 68/68/22 67/67/22
f 58/58/3 59/59/3 69/69/3 68/68/3
f 59/59/23 60/60/23 70/70/23 69/69/23
f 61/62/3 62/61/3 72/71/3 71/72/3
f 62/61/24 63/63/24 73/73/24 72/71/24
f 63/63/25 64/64/25 74/74/25 73/73/25
f 64/64/3 65/65/3 75/75/3 74/74/3
f 65/65/3 66/66/3 76/76/3 75/75/3
f 66/66/26 67/67/26 77/77/26 76/76/26
f 67/67/27 68/68/27 78/78/27 77/77/27
f 68/68/3 69/69/3 79/79/3 78/78/3
f 69/69/28 70/70/28 80/80/28 79/79/28
f 71/72/3 72/71/3 82/81/3 81/82/3
f 72/71/29 73/73/29 83/83/29 82/81/29
f 73/73/30 74/74/30 84/84/30 83/83/30
f 74/74/3 75/75/3 85/85/3 84/84/3
f 75/75/3 76/76/3 86/86/3 85/85/3
f 76/76/3 77/77/3 87/87/3 86/86/3
f 77/77/3 78/78/3 88/88/3 87/87/3
f 78/78/3 79/79/3 89/89/3 88/88/3
f 79/79/31 80/80/31 90/90/31 89/89/31
f 81/82/3 82/81/3 92/91/3 91/92/3
f 82/81/3 83/83/3 93/93/3 92/91/3
f 83/83/3 84/84/3 94/94/3 93/93/3
f 84/84/3 85/85/3 95/95/3 94/94/3
f 85/85/3 86/86/3 96/96/3 95/95/3
f 86/86/3 87/87/3 97/97/3 96/96/3
f 87/87/32 88/88/32 98/98/32 97/97/32
f 88/88/33 89/89/33 99/99/33 98/98/33
f 89/89/34 90/90/34 100/100/34 99/99/34
