# Blender v2.79 (sub 0) OBJ File: ''
# www.blender.org
mtllib Desk.mtl
o Cube.002_Cube.003
v -0.480817 0.328171 -0.229478
v -0.500817 0.328171 -0.229478
v -0.500817 0.328171 0.250000
v -0.480817 0.328171 0.250000
v -0.500817 -0.171829 0.250000
v -0.480817 -0.171829 0.250000
v -0.480817 -0.171829 -0.229478
v -0.500817 -0.171829 -0.229478
v -0.500817 0.328171 -0.250000
v -0.500817 -0.171829 -0.250000
vt 0.341181 0.385261
vt 0.334575 0.385261
vt 0.334575 0.625000
vt 0.341181 0.625000
vt 0.341181 0.664086
vt 0.334575 0.664086
vt 0.334575 0.414086
vt 0.341181 0.414086
vt 0.443243 0.385261
vt 0.608398 0.385261
vt 0.608398 0.625000
vt 0.443243 0.625000
vt 0.608398 0.385261
vt 0.443243 0.385261
vt 0.443243 0.625000
vt 0.608398 0.625000
vt 0.608398 0.375000
vt 0.443243 0.375000
vt 0.341181 0.625000
vt 0.334575 0.625000
vt 0.334575 0.385261
vt 0.341181 0.385261
vt 0.334575 0.375000
vt 0.334575 0.375000
vn 0.0000 1.0000 0.0000
vn 0.0000 -0.0000 1.0000
vn 1.0000 0.0000 0.0000
vn -1.0000 0.0000 0.0000
vn 0.7162 0.0000 -0.6979
vn 0.0000 -1.0000 -0.0000
usemtl Desk
s 1
f 1/1/1 2/2/1 3/3/1 4/4/1
f 4/5/2 3/6/2 5/7/2 6/8/2
f 7/9/3 1/10/3 4/11/3 6/12/3
f 2/13/4 8/14/4 5/15/4 3/16/4
f 9/17/4 10/18/4 8/14/4 2/13/4
f 10/18/5 9/17/5 1/10/5 7/9/5
f 6/19/6 5/20/6 8/21/6 7/22/6
f 1/1/1 9/23/1 2/2/1
f 10/24/6 7/22/6 8/21/6
o Cube.001_Cube.002
v 0.480398 -0.178408 -0.229478
v 0.500398 -0.178408 -0.229478
v 0.500398 -0.178408 0.250000
v 0.480398 -0.178408 0.250000
v 0.500398 0.321592 0.250000
v 0.480398 0.321592 0.250000
v 0.480398 0.321592 -0.229478
v 0.500398 0.321592 -0.229478
v 0.500398 -0.178408 -0.250000
v 0.500398 0.321592 -0.250000
vt 0.658681 0.385261
vt 0.665287 0.385261
vt 0.665287 0.625000
vt 0.658681 0.625000
vt 0.658681 0.410796
vt 0.665287 0.410796
vt 0.665287 0.660796
vt 0.658681 0.660796
vt 0.606225 0.385261
vt 0.441070 0.385261
vt 0.441070 0.625000
vt 0.606225 0.625000
vt 0.441070 0.385261
vt 0.606225 0.385261
vt 0.606225 0.625000
vt 0.441070 0.625000
vt 0.441070 0.375000
vt 0.606225 0.375000
vt 0.658681 0.625000
vt 0.665287 0.625000
vt 0.665287 0.385261
vt 0.658681 0.385261
vt 0.665287 0.375000
vt 0.665287 0.375000
vn 0.0000 -1.0000 -0.0000
vn 0.0000 -0.0000 1.0000
vn -1.0000 0.0000 0.0000
vn 1.0000 0.0000 0.0000
vn -0.7162 0.0000 -0.6979
vn 0.0000 1.0000 0.0000
usemtl Desk
s 1
f 11/25/7 12/26/7 13/27/7 14/28/7
f 14/29/8 13/30/8 15/31/8 16/32/8
f 17/33/9 11/34/9 14/35/9 16/36/9
f 12/37/10 18/38/10 15/39/10 13/40/10
f 19/41/10 20/42/10 18/38/10 12/37/10
f 20/42/11 19/41/11 11/34/11 17/33/11
f 16/43/12 15/44/12 18/45/12 17/46/12
f 11/25/7 19/47/7 12/26/7
f 20/48/12 17/46/12 18/45/12
o Cube_Cube.001
v 0.500000 0.298977 -0.229478
v 0.500000 0.328977 -0.229478
v 0.500000 0.328977 0.250000
v 0.500000 0.298977 0.250000
v -0.500000 0.328977 0.250000
v -0.500000 0.298977 0.250000
v -0.500000 0.298977 -0.229478
v -0.500000 0.328977 -0.229478
v 0.500000 0.328977 -0.250000
v -0.500000 0.328977 -0.250000
vt 1.000000 0.653000
vt 0.971700 0.653000
vt 0.971700 0.333300
vt 1.000000 0.333300
vt 0.943400 0.000000
vt 0.971700 0.000000
vt 0.971700 1.000000
vt 0.943400 1.000000
vt 0.019400 1.000000
vt 0.019400 0.000000
vt 0.471700 0.000000
vt 0.471700 1.000000
vt 0.924000 0.000000
vt 0.924000 1.000000
vt 0.471700 1.000000
vt 0.471700 0.000000
vt 0.943400 0.000000
vt 0.943400 1.000000
vt 0.000000 1.000000
vt 0.000000 0.000000
vt 1.000000 0.333300
vt 0.971700 0.333300
vt 0.971700 0.013700
vt 1.000000 0.013700
vt 0.971700 0.666700
vt 0.971700 0.000000
vn 1.0000 0.0000 0.0000
vn 0.0000 0.0000 1.0000
vn 0.0000 -1.0000 -0.0000
vn 0.0000 1.0000 0.0000
vn 0.0000 -0.5646 -0.8254
vn -1.0000 -0.0000 0.0000
usemtl Desk
s 1
f 21/49/13 22/50/13 23/51/13 24/52/13
f 24/53/14 23/54/14 25/55/14 26/56/14
f 27/57/15 21/58/15 24/59/15 26/60/15
f 22/61/16 28/62/16 25/63/16 23/64/16
f 29/65/16 30/66/16 28/62/16 22/61/16
f 30/67/17 29/68/17 21/58/17 27/57/17
f 26/69/18 25/70/18 28/71/18 27/72/18
f 21/49/13 29/73/13 22/50/13
f 30/74/18 27/72/18 28/71/18
o Cube.003_Cube.004
v -0.484791 -0.009301 0.220460
v -0.484791 0.301576 0.220460
v -0.484791 0.301576 0.215460
v -0.484791 -0.009301 0.215460
v 0.485209 0.301576 0.215460
v 0.485209 -0.009301 0.215460
v 0.485209 0.301576 0.220460
v 0.485209 -0.009301 0.220460
vt 0.666700 0.333300
vt 0.333300 0.333300
vt 0.333300 0.000000
vt 0.666700 0.000000
vt 0.333300 0.666700
vt 0.000000 0.666700
vt 0.000000 0.333300
vt 0.333300 0.333300
vt 0.000000 0.000000
vt 0.333300 0.000000
vt 0.333300 0.666700
vt 0.333300 0.333300
vt 0.666700 0.333300
vt 0.666700 0.666700
vt 1.000000 0.333300
vt 0.666700 0.333300
vt 0.666700 0.000000
vt 1.000000 0.000000
vt 0.333300 0.666700
vt 0.333300 1.000000
vt 0.000000 1.000000
vt 0.000000 0.666700
vn -1.0000 -0.0000 0.0000
vn 0.0000 0.0000 -1.0000
vn 1.0000 0.0000 0.0000
vn 0.0000 -0.0000 1.0000
vn 0.0000 -1.0000 -0.0000
vn 0.0000 1.0000 0.0000
usemtl Desk
s 1
f 31/75/19 32/76/19 33/77/19 34/78/19
f 34/79/20 33/80/20 35/81/20 36/82/20
f 36/82/21 35/81/21 37/83/21 38/84/21
f 38/85/22 37/86/22 32/87/22 31/88/22
f 34/89/23 36/90/23 38/91/23 31/92/23
f 35/93/24 33/94/24 32/95/24 37/96/24
